<?xml version="1.0" encoding="UTF-8"?>
<!DOCTYPE svg PUBLIC "-//W3C//DTD SVG 1.1//EN" "http://www.w3.org/Graphics/SVG/1.1/DTD/svg11.dtd">
<!-- Creator: CorelDRAW 2017 -->
<svg xmlns="http://www.w3.org/2000/svg" xml:space="preserve" width="159px" height="46px" version="1.1" style="shape-rendering:geometricPrecision; text-rendering:geometricPrecision; image-rendering:optimizeQuality; fill-rule:evenodd; clip-rule:evenodd"
viewBox="0 0 22.231 6.398"
 xmlns:xlink="http://www.w3.org/1999/xlink">
 <defs>
  <style type="text/css">
   <![CDATA[
    .fil0 {fill:#8BC34A;fill-rule:nonzero}
   ]]>
  </style>
 </defs>
 <g id="Слой_x0020_1">
  <metadata id="CorelCorpID_0Corel-Layer"/>
  <path class="fil0" d="M19.857 3.279l0.364 0.503c0.435,0.606 0.799,1.092 1.093,1.457 0.292,0.365 0.597,0.717 0.917,1.055l-3.015 0 -1.494 -2.052c-0.57,0.571 -1.109,1.175 -1.617,1.811 -0.178,0.23 -0.308,0.345 -0.392,0.345 -0.045,0 -0.096,-0.027 -0.149,-0.079 -0.054,-0.053 -0.08,-0.1 -0.08,-0.144 0,-0.078 0.11,-0.217 0.331,-0.419 0.534,-0.506 1.103,-1.093 1.707,-1.761l-0.404 -0.568c-0.744,-1.044 -1.315,-1.766 -1.71,-2.163l3.003 0 1.262 1.771c0.648,-0.718 1.12,-1.263 1.414,-1.634 0.139,-0.179 0.244,-0.269 0.318,-0.269 0.05,0 0.101,0.027 0.154,0.079 0.055,0.052 0.082,0.102 0.082,0.148 0,0.064 -0.087,0.173 -0.258,0.327 -0.12,0.11 -0.362,0.355 -0.727,0.739l-0.799 0.854zm-17.045 -2.968l0 0.31 -0.019 3.086 0.01 1.15c0.242,0.064 0.555,0.097 0.94,0.097 0.346,0 0.675,-0.069 0.983,-0.207 0.31,-0.139 0.571,-0.335 0.786,-0.587 0.364,-0.428 0.546,-0.926 0.546,-1.493 0,-0.539 -0.181,-1.027 -0.542,-1.464 -0.257,-0.311 -0.589,-0.538 -0.996,-0.679 -0.407,-0.142 -0.931,-0.213 -1.571,-0.213l-0.137 0zm-0.009 4.857l0 0.129 0.018 0.882 0 0.115 -2.821 0 0.005 -0.281 0.023 -3.242 -0.019 -1.54 -0.004 -1.047 -0.005 -0.184 2.104 0c0.861,0 1.512,0.036 1.955,0.11 0.445,0.074 0.816,0.206 1.118,0.398 0.405,0.255 0.718,0.61 0.939,1.065 0.169,0.349 0.254,0.712 0.254,1.094 0,0.412 -0.096,0.806 -0.287,1.181 -0.226,0.45 -0.549,0.795 -0.965,1.037 -0.416,0.241 -0.897,0.362 -1.444,0.362 -0.203,0 -0.494,-0.027 -0.871,-0.079zm6.744 -5.168l0.004 0.236 -0.009 1.623 -0.005 0.7 -0.009 1.277 0.019 2.279 0 0.179 -2.36 0 0 -0.217 0.011 -0.733 0.007 -1.327 0.011 -1.74 -0.003 -0.935 -0.011 -1.029 0.004 -0.313 2.341 0zm4.084 3.614l0 -1.337c-0.006,-0.288 -0.013,-0.459 -0.019,-0.516 -0.006,-0.056 -0.028,-0.108 -0.064,-0.157 -0.087,-0.119 -0.263,-0.179 -0.53,-0.179 -0.273,0 -0.442,0.069 -0.512,0.206 -0.042,0.082 -0.064,0.297 -0.064,0.646l0 1.337 0.566 0.028 0.623 -0.028zm-1.189 0.321l0 1.425c0,0.277 0.017,0.451 0.05,0.525 0.065,0.14 0.217,0.211 0.456,0.211 0.357,0 0.71,-0.098 1.059,-0.291 0.349,-0.195 0.651,-0.464 0.906,-0.807 0.083,-0.113 0.143,-0.184 0.181,-0.215 0.036,-0.03 0.077,-0.046 0.121,-0.046 0.052,0 0.096,0.019 0.129,0.057 0.034,0.039 0.052,0.086 0.052,0.144 0,0.129 -0.103,0.302 -0.309,0.519 -0.27,0.279 -0.607,0.505 -1.008,0.68 -0.401,0.174 -0.792,0.261 -1.173,0.261 -0.656,0 -1.233,-0.22 -1.735,-0.659 -0.292,-0.258 -0.516,-0.576 -0.673,-0.953 -0.138,-0.332 -0.208,-0.664 -0.208,-0.996 0,-0.319 0.062,-0.638 0.184,-0.961 0.125,-0.321 0.293,-0.597 0.508,-0.83 0.251,-0.274 0.545,-0.486 0.886,-0.635 0.337,-0.148 0.687,-0.222 1.052,-0.222 0.569,0 1.085,0.168 1.546,0.503 0.72,0.524 1.077,1.282 1.071,2.276l-1.076 0 -1.387 0.005 -0.632 0.009z"/>
 </g>
</svg>
