<svg xmlns="http://www.w3.org/2000/svg" width="159" height="46" viewBox="0 0 22.231 6.398" shape-rendering="geometricPrecision" text-rendering="geometricPrecision" image-rendering="optimizeQuality" fill-rule="evenodd" clip-rule="evenodd"><path d="M19.857 3.279l.364.503c.435.606.799 1.092 1.093 1.457.292.365.597.717.917 1.055h-3.015l-1.494-2.052a21.96 21.96 0 0 0-1.617 1.811c-.178.23-.308.345-.392.345-.045 0-.096-.027-.149-.079-.054-.053-.08-.1-.08-.144 0-.078.11-.217.331-.419a32.014 32.014 0 0 0 1.707-1.761l-.404-.568c-.744-1.044-1.315-1.766-1.71-2.163h3.003l1.262 1.771a37.197 37.197 0 0 0 1.414-1.634c.139-.179.244-.269.318-.269.05 0 .101.027.154.079.055.052.082.102.082.148 0 .064-.087.173-.258.327-.12.11-.362.355-.727.739l-.799.854zM2.812.311v.31l-.019 3.086.01 1.15c.242.064.555.097.94.097.346 0 .675-.069.983-.207.31-.139.571-.335.786-.587.364-.428.546-.926.546-1.493 0-.539-.181-1.027-.542-1.464A2.195 2.195 0 0 0 4.52.524C4.113.382 3.589.311 2.949.311h-.137zm-.009 4.857v.129l.018.882v.115H0l.005-.281.023-3.242-.019-1.54L.005.184 0 0h2.104c.861 0 1.512.036 1.955.11.445.074.816.206 1.118.398.405.255.718.61.939 1.065.169.349.254.712.254 1.094 0 .412-.096.806-.287 1.181-.226.45-.549.795-.965 1.037-.416.241-.897.362-1.444.362a6.91 6.91 0 0 1-.871-.079zM9.547 0l.004.236-.009 1.623-.005.7-.009 1.277.019 2.279v.179h-2.36v-.217l.011-.733.007-1.327.011-1.74-.003-.935L7.202.313 7.206 0h2.341zm4.084 3.614V2.277a9.282 9.282 0 0 0-.019-.516.32.32 0 0 0-.064-.157c-.087-.119-.263-.179-.53-.179-.273 0-.442.069-.512.206-.042.082-.064.297-.064.646v1.337l.566.028.623-.028zm-1.189.321V5.36c0 .277.017.451.05.525.065.14.217.211.456.211.357 0 .71-.098 1.059-.291.349-.195.651-.464.906-.807a1.35 1.35 0 0 1 .181-.215.187.187 0 0 1 .121-.046c.052 0 .096.019.129.057a.21.21 0 0 1 .052.144c0 .129-.103.302-.309.519-.27.279-.607.505-1.008.68a2.936 2.936 0 0 1-1.173.261c-.656 0-1.233-.22-1.735-.659a2.569 2.569 0 0 1-.673-.953 2.579 2.579 0 0 1-.208-.996c0-.319.062-.638.184-.961a2.594 2.594 0 0 1 1.394-1.465 2.587 2.587 0 0 1 1.052-.222 2.57 2.57 0 0 1 1.546.503c.72.524 1.077 1.282 1.071 2.276h-1.076l-1.387.005-.632.009z" fill="#8bc34a" fill-rule="nonzero"/></svg>