<?xml version="1.0" encoding="UTF-8"?>
<!DOCTYPE svg PUBLIC "-//W3C//DTD SVG 1.1//EN" "http://www.w3.org/Graphics/SVG/1.1/DTD/svg11.dtd">
<!-- Creator: CorelDRAW 2017 -->
<svg xmlns="http://www.w3.org/2000/svg" xml:space="preserve" width="680px" height="140px" version="1.1" style="shape-rendering:geometricPrecision; text-rendering:geometricPrecision; image-rendering:optimizeQuality; fill-rule:evenodd; clip-rule:evenodd"
viewBox="0 0 703.253 144.89"
 xmlns:xlink="http://www.w3.org/1999/xlink">
 <defs>
  <style type="text/css">
   <![CDATA[
    .fil1 {fill:#444444}
    .fil0 {fill:#78DB78}
    .fil2 {fill:#444444;fill-rule:nonzero}
   ]]>
  </style>
 </defs>
 <g id="Слой_x0020_1">
  <metadata id="CorelCorpID_0Corel-Layer"/>
  <path class="fil0" d="M72.445 0c40.01,0 72.445,32.435 72.445,72.445 0,40.01 -32.435,72.445 -72.445,72.445 -40.01,0 -72.445,-32.435 -72.445,-72.445 0,-40.01 32.435,-72.445 72.445,-72.445zm0 16.559c30.865,0 55.886,25.021 55.886,55.886 0,30.865 -25.021,55.886 -55.886,55.886 -30.865,0 -55.886,-25.021 -55.886,-55.886 0,-30.865 25.021,-55.886 55.886,-55.886z"/>
  <polygon class="fil1" points="94.832,35.631 31.067,72.445 94.832,109.259 "/>
  <path class="fil2" d="M175.44 110.793l0 -76.696 27.543 0c9.87,0 17.385,1.798 22.527,5.411 5.141,3.614 7.713,8.864 7.713,15.731 0,3.956 -0.917,7.354 -2.733,10.158 -1.834,2.805 -4.513,4.872 -8.055,6.203 3.992,1.043 7.066,3.02 9.205,5.897 2.14,2.894 3.219,6.4 3.219,10.553 0,7.533 -2.373,13.179 -7.138,16.972 -4.764,3.775 -11.812,5.699 -21.143,5.771l-31.138 0zm18.482 -32.685l0 18.446 12.117 0c3.344,0 5.897,-0.773 7.695,-2.301 1.798,-1.528 2.679,-3.686 2.679,-6.472 0,-6.419 -3.165,-9.637 -9.529,-9.673l-12.962 0zm0 -12.081l9.654 0c4.027,-0.036 6.904,-0.773 8.63,-2.212 1.726,-1.438 2.588,-3.56 2.588,-6.364 0,-3.237 -0.934,-5.556 -2.804,-6.976 -1.852,-1.42 -4.854,-2.139 -9.007,-2.139l-9.061 0 0 17.691zm94.657 30.419l-25.332 0 -4.423 14.347 -19.758 0 28.136 -76.696 17.367 0 28.353 76.696 -19.867 0 -4.476 -14.347zm-20.909 -14.239l16.486 0 -8.27 -26.626 -8.216 26.626zm111.754 2.643c-0.251,5.34 -1.69,10.05 -4.333,14.149 -2.624,4.081 -6.328,7.245 -11.074,9.493 -4.765,2.247 -10.194,3.38 -16.307,3.38 -10.086,0 -18.015,-3.29 -23.804,-9.853 -5.807,-6.562 -8.701,-15.839 -8.701,-27.812l0 -3.794c0,-7.515 1.312,-14.095 3.937,-19.722 2.607,-5.645 6.383,-9.996 11.291,-13.071 4.908,-3.074 10.607,-4.602 17.061,-4.602 9.313,0 16.792,2.445 22.438,7.353 5.663,4.89 8.863,11.65 9.636,20.244l-18.428 0c-0.144,-4.674 -1.312,-8.036 -3.524,-10.086 -2.211,-2.032 -5.591,-3.056 -10.122,-3.056 -4.602,0 -7.964,1.726 -10.104,5.16 -2.139,3.452 -3.272,8.953 -3.38,16.522l0 5.429c0,8.18 1.025,14.042 3.093,17.565 2.049,3.506 5.591,5.268 10.607,5.268 4.243,0 7.497,-1.007 9.745,-3.002 2.247,-2.014 3.433,-5.196 3.577,-9.565l18.392 0zm34.843 -2.607l-7.569 8.324 0 20.226 -18.5 0 0 -76.696 18.5 0 0 33.817 6.418 -9.744 16.54 -24.073 22.851 0 -25.907 33.925 25.907 42.771 -21.898 0 -16.342 -28.55zm129.193 -0.054l8.792 -48.092 18.32 0 -16.271 76.696 -19.165 0 -10.284 -43.724 -10.05 43.724 -19.129 0 -16.324 -76.696 18.392 0 8.791 48.092 10.536 -48.092 15.695 0 10.697 48.092zm75.636 14.257l-25.332 0 -4.423 14.347 -19.758 0 28.136 -76.696 17.368 0 28.352 76.696 -19.867 0 -4.476 -14.347zm-20.909 -14.239l16.486 0 -8.27 -26.626 -8.216 26.626zm70.997 -14.814l14.113 -33.296 19.956 0 -24.702 49.153 0 27.543 -18.752 0 0 -27.543 -24.648 -49.153 19.866 0 14.167 33.296z"/>
 </g>
</svg>
