<svg xmlns="http://www.w3.org/2000/svg" xmlns:xlink="http://www.w3.org/1999/xlink"><defs><style>
    .sprite-symbol-usage {display: none;}
    .sprite-symbol-usage:target {display: inline;}
  </style><symbol viewBox="-147 -70 294 345" id="android"><g><use stroke-width="14.4" xlink:href="#android_a" /><use xlink:href="#android_b" transform="scale(-1 1)" /><g id="android_b" stroke-width="7.2"><rect rx="6.5" transform="rotate(29)" height="86" width="13" y="-86" x="14" /><rect id="android_c" rx="24" height="133" width="48" y="41" x="-143" /><use y="97" x="85" xlink:href="#android_c" /></g><g id="android_a"><ellipse cy="41" rx="91" ry="84" /><rect rx="22" height="182" width="182" y="20" x="-91" /></g></g><g stroke-width="7.2"><path d="M-95 44.5H95" /><circle cx="-42" r="4" /><circle cx="42" r="4" /></g></symbol><symbol viewBox="0 0 24 24" id="archive"><path d="M20.54 5.23l-1.39-1.68C18.88 3.21 18.47 3 18 3H6c-.47 0-.88.21-1.16.55L3.46 5.23C3.17 5.57 3 6.02 3 6.5V19c0 1.1.9 2 2 2h14c1.1 0 2-.9 2-2V6.5c0-.48-.17-.93-.46-1.27zM12 17.5L6.5 12H10v-2h4v2h3.5L12 17.5zM5.12 5l.81-1h12l.94 1H5.12z" /></symbol><symbol viewBox="0 0 24 24" id="close"><path d="M19 6.41L17.59 5 12 10.59 6.41 5 5 6.41 10.59 12 5 17.59 6.41 19 12 13.41 17.59 19 19 17.59 13.41 12z" /></symbol><symbol viewBox="0 0 24 24" id="comment"><path d="M21.99 4c0-1.1-.89-2-1.99-2H4c-1.1 0-2 .9-2 2v12c0 1.1.9 2 2 2h14l4 4-.01-18z" /></symbol><symbol viewBox="0 0 24 24" id="crash"><path d="M19 9h-4V3H9v6H5l7 7 7-7zM5 18v2h14v-2H5z" /></symbol><symbol viewBox="0 0 24 24" id="data"><path d="M3 13h8V3H3v10zm0 8h8v-6H3v6zm10 0h8V11h-8v10zm0-18v6h8V3h-8z" /></symbol><symbol viewBox="0 0 24 24" id="delete"><path d="M6 19c0 1.1.9 2 2 2h8c1.1 0 2-.9 2-2V7H6v12zm2.46-7.12l1.41-1.41L12 12.59l2.12-2.12 1.41 1.41L13.41 14l2.12 2.12-1.41 1.41L12 15.41l-2.12 2.12-1.41-1.41L10.59 14l-2.13-2.12zM15.5 4l-1-1h-5l-1 1H5v2h14V4z" /></symbol><symbol viewBox="0 0 24 24" id="docs"><path d="M4 6H2v14c0 1.1.9 2 2 2h14v-2H4V6zm16-4H8c-1.1 0-2 .9-2 2v12c0 1.1.9 2 2 2h12c1.1 0 2-.9 2-2V4c0-1.1-.9-2-2-2zm-1 9H9V9h10v2zm-4 4H9v-2h6v2zm4-8H9V5h10v2z" /></symbol><symbol viewBox="0 0 24 24" id="edit"><path d="M3 17.25V21h3.75L17.81 9.94l-3.75-3.75L3 17.25zM20.71 7.04a.996.996 0 0 0 0-1.41l-2.34-2.34a.996.996 0 0 0-1.41 0l-1.83 1.83 3.75 3.75 1.83-1.83z" /></symbol><symbol viewBox="0 0 24 24" id="encrypt"><path d="M18 8h-1V6c0-2.76-2.24-5-5-5S7 3.24 7 6v2H6c-1.1 0-2 .9-2 2v10c0 1.1.9 2 2 2h12c1.1 0 2-.9 2-2V10c0-1.1-.9-2-2-2zM8.9 6c0-1.71 1.39-3.1 3.1-3.1s3.1 1.39 3.1 3.1v2H8.9V6zM16 16h-3v3h-2v-3H8v-2h3v-3h2v3h3v2z" /></symbol><symbol viewBox="0 0 24 24" id="fire"><path d="M13.5.67s.74 2.65.74 4.8c0 2.06-1.35 3.73-3.41 3.73-2.07 0-3.63-1.67-3.63-3.73l.03-.36C5.21 7.51 4 10.62 4 14c0 4.42 3.58 8 8 8s8-3.58 8-8C20 8.61 17.41 3.8 13.5.67zM11.71 19c-1.78 0-3.22-1.4-3.22-3.14 0-1.62 1.05-2.76 2.81-3.12 1.77-.36 3.6-1.21 4.62-2.58.39 1.29.59 2.65.59 4.04 0 2.65-2.15 4.8-4.8 4.8z" /></symbol><symbol viewBox="0 0 24 24" id="format"><path d="M18.99 11.5c.34 0 .67.03 1 .07L20 0 0 20h11.56c-.04-.33-.07-.66-.07-1 0-4.14 3.36-7.5 7.5-7.5zm3.71 7.99c.02-.16.04-.32.04-.49 0-.17-.01-.33-.04-.49l1.06-.83a.26.26 0 0 0 .06-.32l-1-1.73c-.06-.11-.19-.15-.31-.11l-1.24.5c-.26-.2-.54-.37-.85-.49l-.19-1.32c-.01-.12-.12-.21-.24-.21h-2c-.12 0-.23.09-.25.21l-.19 1.32c-.3.13-.59.29-.85.49l-1.24-.5c-.11-.04-.24 0-.31.11l-1 1.73c-.06.11-.04.24.06.32l1.06.83a3.908 3.908 0 0 0 0 .98l-1.06.83a.26.26 0 0 0-.06.32l1 1.73c.06.11.19.15.31.11l1.24-.5c.26.2.54.37.85.49l.19 1.32c.02.12.12.21.25.21h2c.12 0 .23-.09.25-.21l.19-1.32c.3-.13.59-.29.84-.49l1.25.5c.11.04.24 0 .31-.11l1-1.73a.26.26 0 0 0-.06-.32l-1.07-.83zm-3.71 1.01c-.83 0-1.5-.67-1.5-1.5s.67-1.5 1.5-1.5 1.5.67 1.5 1.5-.67 1.5-1.5 1.5z" /></symbol><symbol viewBox="0 0 24 24" id="home"><path d="M10 20v-6h4v6h5v-8h3L12 3 2 12h3v8z" /></symbol><symbol viewBox="0 0 1000 1000" id="linux"><path d="M896.1 809.4c-25.9-10.7-47.2-27.3-45.7-59.5 1.5-32-22.9-53.2-22.9-53.2s21.4-70.1 1.5-128c-19.8-58-85.3-150.8-135.6-220.9-50.1-70.1-7.5-150.8-53.2-254.4C594.4-10 475.6-4 411.6 40.2c-64.1 44.1-44.3 153.8-41.2 205.7 3 51.7 1.4 88.6-4.5 102-6.1 13.4-47.2 62.5-74.6 103.6-27.4 41.1-47.2 126.4-67.1 161.4-19.8 35.1-6.1 67-6.1 67s-13.7 4.5-24.4 27.5c-10.7 22.7-31.9 33.4-70 40.9-38.1 7.6-38.1 32.1-29 59.6 9.2 27.3 0 42.7-10.7 77.7s42.6 45.7 94.4 51.7c51.8 6.2 109.7 39.7 158.5 45.7 48.7 6.1 64-33.5 64-33.5s54.8-12.2 112.6-13.7c57.9-1.6 112.6 12.1 112.6 12.1s10.7 24.4 30.5 35c19.9 10.7 62.5 12.2 89.9-16.7 27.4-29 100.6-65.5 141.6-88.3 41.5-23 33.9-58 8-68.5zM539.6 137.6c26.2 0 47.2 25.9 47.2 57.8 0 22.7-10.6 42.2-26.1 51.7-3.9-1.8-8-3.4-12.4-5.4 9.3-4.6 15.9-16.5 15.9-30.3 0-18-11.2-32.6-24.9-32.6-13.6 0-24.8 14.7-24.8 32.6 0 6.7 1.6 13 4.3 18.3-8.1-3.2-15.6-6.3-21.5-8.4-3.1-7.7-5-16.6-5-26 .1-31.8 21.2-57.7 47.3-57.7zm-3.4 122c13 4.5 27.6 13 26.1 21.4-1.6 8.4-8.4 8.4-26.1 19.3-17.7 10.7-56 34.5-68.3 36-12.3 1.6-19.2-5.4-32.2-13.8-13-8.4-37.6-28.5-31.4-39.2 0 0 19.1-14.7 27.5-22.3 8.4-7.7 30-26.1 43-23.7 13 2.2 48.4 17.7 61.4 22.3zM418.5 146.8c20.6 0 37.3 24.5 37.3 54.8 0 5.6-.6 10.7-1.6 15.7-5 1.8-10.1 4.5-15.1 8.6-2.5 2.1-4.7 4-6.9 5.9 3.2-6.1 4.6-14.8 3.1-24-2.7-16.6-13.8-28.6-24.7-26.8-10.9 1.9-17.4 16.7-14.7 33.4 2.8 16.7 13.8 28.7 24.7 26.8.6-.1 1.2-.3 1.9-.5-5.3 5.1-10.2 9.5-15.2 13.2-15.1-7-26.2-27.8-26.2-52.4.2-30.2 16.8-54.7 37.4-54.7zm-40.2 769.6c-4.9 21.8-30.5 37.7-30.5 37.7-23.2 7.2-87.7-20.7-116.8-32.9-29.2-12.1-103.4-15.9-113.2-26.7-9.7-11.1 4.9-35.4 8.6-58.4 3.6-23.2-7.2-37.7-3.7-53.6 3.7-15.8 51.1-15.8 69.3-26.7 18.3-11 21.9-42.6 36.5-51.1 14.6-8.6 41.3 21.8 52.3 39 11 16.9 52.3 90 69.3 108.2 17.3 18.2 33 42.7 28.2 64.5zm269.4-212.2c-4.4 21.5-4.4 99-4.4 99s-47.2 65.4-120.4 76.1c-73.1 10.7-109.7 3-109.7 3l-41.1-47.2s31.9-4.6 27.4-36.6c-4.6-31.9-97.5-76.2-114.2-115.8-16.7-39.6-3-106.7 18.3-140.2 21.3-33.5 35-106.6 56.3-131 21.4-24.3 38-76.1 30.5-98.9 0 0 45.7 54.9 77.7 45.7 31.9-9.2 103.6-62.5 114.2-53.3 10.7 9.2 102.1 210.2 111.1 274.2 9.2 64-6.1 112.6-6.1 112.6s-35.1-9-39.6 12.4zm233.8 143.5c-14.2 13-93.4 45.1-117.1 69.9-23.6 24.8-54.5 44.9-73.4 39-19-6-35.6-31.9-27.2-69.9 8.2-37.8 15.4-79.2 14.2-102.9-1.2-23.7-6-55.7 0-60.4 5.9-4.6 15.3-2.3 15.3-2.3s-4.6 44.9 22.5 56.8c27.1 11.8 66.2-4.7 78.1-16.7 11.9-11.8 20.2-29.5 20.2-29.5s11.8 6 10.7 24.9c-1.2 18.9 8.2 46.2 26.1 55.6 17.5 9.4 44.8 22.4 30.6 35.5z" /></symbol><symbol preserveAspectRatio="xMidYMid" viewBox="0 0 256 315" id="macos"><path d="M213.803 167.03c.442 47.58 41.74 63.413 42.197 63.615-.35 1.116-6.599 22.563-21.757 44.716-13.104 19.153-26.705 38.235-48.13 38.63-21.05.388-27.82-12.483-51.888-12.483-24.061 0-31.582 12.088-51.51 12.871-20.68.783-36.428-20.71-49.64-39.793-27-39.033-47.633-110.3-19.928-158.406 13.763-23.89 38.36-39.017 65.056-39.405 20.307-.387 39.475 13.662 51.889 13.662 12.406 0 35.699-16.895 60.186-14.414 10.25.427 39.026 4.14 57.503 31.186-1.49.923-34.335 20.044-33.978 59.822M174.24 50.199c10.98-13.29 18.369-31.79 16.353-50.199-15.826.636-34.962 10.546-46.314 23.828-10.173 11.763-19.082 30.589-16.678 48.633 17.64 1.365 35.66-8.964 46.64-22.262" /></symbol><symbol viewBox="0 0 24 24" id="mail"><path d="M20 4H4c-1.1 0-1.99.9-1.99 2L2 18c0 1.1.9 2 2 2h16c1.1 0 2-.9 2-2V6c0-1.1-.9-2-2-2zm0 14H4V8l8 5 8-5v10zm-8-7L4 6h16l-8 5z" /></symbol><symbol viewBox="0 0 24 24" id="menu"><path d="M3 18h18v-2H3v2zm0-5h18v-2H3v2zm0-7v2h18V6H3z" /></symbol><symbol viewBox="0 0 24 24" id="mobile"><path d="M16 1H8C6.34 1 5 2.34 5 4v16c0 1.66 1.34 3 3 3h8c1.66 0 3-1.34 3-3V4c0-1.66-1.34-3-3-3zm-2 20h-4v-1h4v1zm3.25-3H6.75V4h10.5v14z" /></symbol><symbol viewBox="0 0 24 24" id="music"><path d="M20 2H8c-1.1 0-2 .9-2 2v12c0 1.1.9 2 2 2h12c1.1 0 2-.9 2-2V4c0-1.1-.9-2-2-2zm-2 5h-3v5.5a2.5 2.5 0 0 1-5 0 2.5 2.5 0 0 1 2.5-2.5c.57 0 1.08.19 1.5.51V5h4v2zM4 6H2v14c0 1.1.9 2 2 2h14v-2H4V6z" /></symbol><symbol viewBox="0 0 24 24" id="person"><path d="M12 12c2.21 0 4-1.79 4-4s-1.79-4-4-4-4 1.79-4 4 1.79 4 4 4zm0 2c-2.67 0-8 1.34-8 4v2h16v-2c0-2.66-5.33-4-8-4z" /></symbol><symbol viewBox="0 0 24 24" id="phone"><path d="M6.62 10.79c1.44 2.83 3.76 5.14 6.59 6.59l2.2-2.2c.27-.27.67-.36 1.02-.24 1.12.37 2.33.57 3.57.57.55 0 1 .45 1 1V20c0 .55-.45 1-1 1-9.39 0-17-7.61-17-17 0-.55.45-1 1-1h3.5c.55 0 1 .45 1 1 0 1.25.2 2.45.57 3.57.11.35.03.74-.25 1.02l-2.2 2.2z" /></symbol><symbol viewBox="0 0 24 24" id="photo"><path d="M22 16V4c0-1.1-.9-2-2-2H8c-1.1 0-2 .9-2 2v12c0 1.1.9 2 2 2h12c1.1 0 2-.9 2-2zm-11-4l2.03 2.71L16 11l4 5H8l3-4zM2 6v14c0 1.1.9 2 2 2h14v-2H4V6H2z" /></symbol><symbol viewBox="0 0 24 24" id="place"><path d="M12 2C8.13 2 5 5.13 5 9c0 5.25 7 13 7 13s7-7.75 7-13c0-3.87-3.13-7-7-7zm0 9.5a2.5 2.5 0 0 1 0-5 2.5 2.5 0 0 1 0 5z" /></symbol><symbol viewBox="0 0 24 24" id="rewrite"><path d="M12 6v3l4-4-4-4v3c-4.42 0-8 3.58-8 8 0 1.57.46 3.03 1.24 4.26L6.7 14.8A5.87 5.87 0 0 1 6 12c0-3.31 2.69-6 6-6zm6.76 1.74L17.3 9.2c.44.84.7 1.79.7 2.8 0 3.31-2.69 6-6 6v-3l-4 4 4 4v-3c4.42 0 8-3.58 8-8 0-1.57-.46-3.03-1.24-4.26z" /></symbol><symbol viewBox="0 0 24 24" id="search"><path d="M15.5 14h-.79l-.28-.27A6.471 6.471 0 0 0 16 9.5 6.5 6.5 0 1 0 9.5 16c1.61 0 3.09-.59 4.23-1.57l.27.28v.79l5 4.99L20.49 19l-4.99-5zm-6 0C7.01 14 5 11.99 5 9.5S7.01 5 9.5 5 14 7.01 14 9.5 11.99 14 9.5 14z" /></symbol><symbol viewBox="0 0 24 24" id="time"><path d="M11.99 2C6.47 2 2 6.48 2 12s4.47 10 9.99 10C17.52 22 22 17.52 22 12S17.52 2 11.99 2zM12 20c-4.42 0-8-3.58-8-8s3.58-8 8-8 8 3.58 8 8-3.58 8-8 8z" /><path d="M12.5 7H11v6l5.25 3.15.75-1.23-4.5-2.67z" /></symbol><symbol viewBox="0 0 24 24" id="video"><path d="M4 6H2v14c0 1.1.9 2 2 2h14v-2H4V6zm16-4H8c-1.1 0-2 .9-2 2v12c0 1.1.9 2 2 2h12c1.1 0 2-.9 2-2V4c0-1.1-.9-2-2-2zm-8 12.5v-9l6 4.5-6 4.5z" /></symbol><symbol viewBox="0 0 24 24" id="virus"><path d="M20 8h-2.81a5.985 5.985 0 0 0-1.82-1.96L17 4.41 15.59 3l-2.17 2.17C12.96 5.06 12.49 5 12 5c-.49 0-.96.06-1.41.17L8.41 3 7 4.41l1.62 1.63C7.88 6.55 7.26 7.22 6.81 8H4v2h2.09c-.05.33-.09.66-.09 1v1H4v2h2v1c0 .34.04.67.09 1H4v2h2.81c1.04 1.79 2.97 3 5.19 3s4.15-1.21 5.19-3H20v-2h-2.09c.05-.33.09-.66.09-1v-1h2v-2h-2v-1c0-.34-.04-.67-.09-1H20V8zm-6 8h-4v-2h4v2zm0-4h-4v-2h4v2z" /></symbol><symbol viewBox="0 0 24 24" id="water"><path d="M17.66 8L12 2.35 6.34 8A8.02 8.02 0 0 0 4 13.64c0 2 .78 4.11 2.34 5.67a7.99 7.99 0 0 0 11.32 0c1.56-1.56 2.34-3.67 2.34-5.67S19.22 9.56 17.66 8zM6 14c.01-2 .62-3.27 1.76-4.4L12 5.27l4.24 4.38C17.38 10.77 17.99 12 18 14H6z" /></symbol><symbol viewBox="0 0 88 88" id="windows"><path d="M0 12.402l35.687-4.86.016 34.423-35.67.203zm35.67 33.529l.028 34.453L.028 75.48.026 45.7zm4.326-39.025L87.314 0v41.527l-47.318.376zm47.33 39.349l-.012 41.34-47.318-6.678-.066-34.74z" /></symbol></defs><use id="android-usage" xlink:href="#android" class="sprite-symbol-usage" /><use id="archive-usage" xlink:href="#archive" class="sprite-symbol-usage" /><use id="close-usage" xlink:href="#close" class="sprite-symbol-usage" /><use id="comment-usage" xlink:href="#comment" class="sprite-symbol-usage" /><use id="crash-usage" xlink:href="#crash" class="sprite-symbol-usage" /><use id="data-usage" xlink:href="#data" class="sprite-symbol-usage" /><use id="delete-usage" xlink:href="#delete" class="sprite-symbol-usage" /><use id="docs-usage" xlink:href="#docs" class="sprite-symbol-usage" /><use id="edit-usage" xlink:href="#edit" class="sprite-symbol-usage" /><use id="encrypt-usage" xlink:href="#encrypt" class="sprite-symbol-usage" /><use id="fire-usage" xlink:href="#fire" class="sprite-symbol-usage" /><use id="format-usage" xlink:href="#format" class="sprite-symbol-usage" /><use id="home-usage" xlink:href="#home" class="sprite-symbol-usage" /><use id="linux-usage" xlink:href="#linux" class="sprite-symbol-usage" /><use id="macos-usage" xlink:href="#macos" class="sprite-symbol-usage" /><use id="mail-usage" xlink:href="#mail" class="sprite-symbol-usage" /><use id="menu-usage" xlink:href="#menu" class="sprite-symbol-usage" /><use id="mobile-usage" xlink:href="#mobile" class="sprite-symbol-usage" /><use id="music-usage" xlink:href="#music" class="sprite-symbol-usage" /><use id="person-usage" xlink:href="#person" class="sprite-symbol-usage" /><use id="phone-usage" xlink:href="#phone" class="sprite-symbol-usage" /><use id="photo-usage" xlink:href="#photo" class="sprite-symbol-usage" /><use id="place-usage" xlink:href="#place" class="sprite-symbol-usage" /><use id="rewrite-usage" xlink:href="#rewrite" class="sprite-symbol-usage" /><use id="search-usage" xlink:href="#search" class="sprite-symbol-usage" /><use id="time-usage" xlink:href="#time" class="sprite-symbol-usage" /><use id="video-usage" xlink:href="#video" class="sprite-symbol-usage" /><use id="virus-usage" xlink:href="#virus" class="sprite-symbol-usage" /><use id="water-usage" xlink:href="#water" class="sprite-symbol-usage" /><use id="windows-usage" xlink:href="#windows" class="sprite-symbol-usage" /></svg>